<svg width="133" height="26" viewBox="0 0 133 26" fill="none" xmlns="http://www.w3.org/2000/svg">
<g clip-path="url(#clip0)">
<path d="M113.508 14.6154H124.678L119.798 19.4954C119.408 19.8854 119.408 20.5254 119.798 20.9154C120.188 21.3054 120.818 21.3054 121.208 20.9154L127.798 14.3254C128.188 13.9354 128.188 13.3054 127.798 12.9154L121.218 6.31543C121.031 6.12818 120.777 6.02295 120.513 6.02295C120.248 6.02295 119.995 6.12818 119.808 6.31543C119.418 6.70543 119.418 7.33543 119.808 7.72543L124.678 12.6154H113.508C112.958 12.6154 112.508 13.0654 112.508 13.6154C112.508 14.1654 112.958 14.6154 113.508 14.6154Z" fill="#37474F"/>
<mask id="mask0" mask-type="alpha" maskUnits="userSpaceOnUse" x="112" y="6" width="17" height="16">
<path d="M113.508 14.6154H124.678L119.798 19.4954C119.408 19.8854 119.408 20.5254 119.798 20.9154C120.188 21.3054 120.818 21.3054 121.208 20.9154L127.798 14.3254C128.188 13.9354 128.188 13.3054 127.798 12.9154L121.218 6.31543C121.031 6.12818 120.777 6.02295 120.513 6.02295C120.248 6.02295 119.995 6.12818 119.808 6.31543C119.418 6.70543 119.418 7.33543 119.808 7.72543L124.678 12.6154H113.508C112.958 12.6154 112.508 13.0654 112.508 13.6154C112.508 14.1654 112.958 14.6154 113.508 14.6154Z" fill="white"/>
</mask>
<g mask="url(#mask0)">
</g>
</g>
<defs>
<clipPath id="clip0">
<rect width="133" height="25" fill="white" transform="translate(0 0.846191)"/>
</clipPath>
</defs>
</svg>
